<svg width="1440" height="1024" viewBox="0 0 1440 1024" fill="none" xmlns="http://www.w3.org/2000/svg">
<g clip-path="url(#clip0_1_2)">
<rect width="1440" height="1024" fill="white"/>
<path d="M46.4318 300.21V283.335H49.2955V300.21H46.4318ZM39.4261 293.205V290.341H56.3011V293.205H39.4261Z" fill="#1BD6B4" fill-opacity="0.5"/>
<path d="M90.4318 300.21V283.335H93.2955V300.21H90.4318ZM83.4261 293.205V290.341H100.301V293.205H83.4261Z" fill="#1BD6B4" fill-opacity="0.5"/>
<path d="M134.432 300.21V283.335H137.295V300.21H134.432ZM127.426 293.205V290.341H144.301V293.205H127.426Z" fill="#1BD6B4" fill-opacity="0.5"/>
<path d="M178.432 300.21V283.335H181.295V300.21H178.432ZM171.426 293.205V290.341H188.301V293.205H171.426Z" fill="#1BD6B4" fill-opacity="0.5"/>
<path d="M222.432 300.21V283.335H225.295V300.21H222.432ZM215.426 293.205V290.341H232.301V293.205H215.426Z" fill="#1BD6B4" fill-opacity="0.5"/>
<path d="M266.432 300.21V283.335H269.295V300.21H266.432ZM259.426 293.205V290.341H276.301V293.205H259.426Z" fill="#1BD6B4" fill-opacity="0.5"/>
<path d="M310.432 300.21V283.335H313.295V300.21H310.432ZM303.426 293.205V290.341H320.301V293.205H303.426Z" fill="#1BD6B4" fill-opacity="0.5"/>
<path d="M354.432 300.21V283.335H357.295V300.21H354.432ZM347.426 293.205V290.341H364.301V293.205H347.426Z" fill="#1BD6B4" fill-opacity="0.5"/>
<path d="M398.432 300.21V283.335H401.295V300.21H398.432ZM391.426 293.205V290.341H408.301V293.205H391.426Z" fill="#1BD6B4" fill-opacity="0.5"/>
<path d="M442.432 300.21V283.335H445.295V300.21H442.432ZM435.426 293.205V290.341H452.301V293.205H435.426Z" fill="#1BD6B4" fill-opacity="0.5"/>
<path d="M486.432 300.21V283.335H489.295V300.21H486.432ZM479.426 293.205V290.341H496.301V293.205H479.426Z" fill="#1BD6B4" fill-opacity="0.5"/>
<path d="M530.432 300.21V283.335H533.295V300.21H530.432ZM523.426 293.205V290.341H540.301V293.205H523.426Z" fill="#1BD6B4" fill-opacity="0.5"/>
<path d="M574.432 300.21V283.335H577.295V300.21H574.432ZM567.426 293.205V290.341H584.301V293.205H567.426Z" fill="#1BD6B4" fill-opacity="0.5"/>
<path d="M618.432 300.21V283.335H621.295V300.21H618.432ZM611.426 293.205V290.341H628.301V293.205H611.426Z" fill="#1BD6B4" fill-opacity="0.5"/>
<path d="M662.432 300.21V283.335H665.295V300.21H662.432ZM655.426 293.205V290.341H672.301V293.205H655.426Z" fill="#1BD6B4" fill-opacity="0.5"/>
<path d="M706.432 300.21V283.335H709.295V300.21H706.432ZM699.426 293.205V290.341H716.301V293.205H699.426Z" fill="#1BD6B4" fill-opacity="0.5"/>
<path d="M750.432 300.21V283.335H753.295V300.21H750.432ZM743.426 293.205V290.341H760.301V293.205H743.426Z" fill="#1BD6B4" fill-opacity="0.5"/>
<path d="M794.432 300.21V283.335H797.295V300.21H794.432ZM787.426 293.205V290.341H804.301V293.205H787.426Z" fill="#1BD6B4" fill-opacity="0.5"/>
<path d="M838.432 300.21V283.335H841.295V300.21H838.432ZM831.426 293.205V290.341H848.301V293.205H831.426Z" fill="#1BD6B4" fill-opacity="0.5"/>
<path d="M882.432 300.21V283.335H885.295V300.21H882.432ZM875.426 293.205V290.341H892.301V293.205H875.426Z" fill="#1BD6B4" fill-opacity="0.5"/>
<path d="M926.432 300.21V283.335H929.295V300.21H926.432ZM919.426 293.205V290.341H936.301V293.205H919.426Z" fill="#1BD6B4" fill-opacity="0.5"/>
<path d="M970.432 300.21V283.335H973.295V300.21H970.432ZM963.426 293.205V290.341H980.301V293.205H963.426Z" fill="#1BD6B4" fill-opacity="0.5"/>
<path d="M1014.43 300.21V283.335H1017.3V300.21H1014.43ZM1007.43 293.205V290.341H1024.3V293.205H1007.43Z" fill="#1BD6B4" fill-opacity="0.5"/>
<path d="M1058.43 300.21V283.335H1061.3V300.21H1058.43ZM1051.43 293.205V290.341H1068.3V293.205H1051.43Z" fill="#1BD6B4" fill-opacity="0.5"/>
<path d="M1102.43 300.21V283.335H1105.3V300.21H1102.43ZM1095.43 293.205V290.341H1112.3V293.205H1095.43Z" fill="#1BD6B4" fill-opacity="0.5"/>
<path d="M1146.43 300.21V283.335H1149.3V300.21H1146.43ZM1139.43 293.205V290.341H1156.3V293.205H1139.43Z" fill="#1BD6B4" fill-opacity="0.5"/>
<path d="M1190.43 300.21V283.335H1193.3V300.21H1190.43ZM1183.43 293.205V290.341H1200.3V293.205H1183.43Z" fill="#1BD6B4" fill-opacity="0.5"/>
<path d="M1234.43 300.21V283.335H1237.3V300.21H1234.43ZM1227.43 293.205V290.341H1244.3V293.205H1227.43Z" fill="#1BD6B4" fill-opacity="0.5"/>
<path d="M1278.43 300.21V283.335H1281.3V300.21H1278.43ZM1271.43 293.205V290.341H1288.3V293.205H1271.43Z" fill="#1BD6B4" fill-opacity="0.5"/>
<path d="M1322.43 300.21V283.335H1325.3V300.21H1322.43ZM1315.43 293.205V290.341H1332.3V293.205H1315.43Z" fill="#1BD6B4" fill-opacity="0.5"/>
<path d="M1366.43 300.21V283.335H1369.3V300.21H1366.43ZM1359.43 293.205V290.341H1376.3V293.205H1359.43Z" fill="#1BD6B4" fill-opacity="0.5"/>
<path d="M1410.43 300.21V283.335H1413.3V300.21H1410.43ZM1403.43 293.205V290.341H1420.3V293.205H1403.43Z" fill="#1BD6B4" fill-opacity="0.5"/>
<path d="M46.4318 354.21V337.335H49.2955V354.21H46.4318ZM39.4261 347.205V344.341H56.3011V347.205H39.4261Z" fill="#1BD6B4" fill-opacity="0.5"/>
<path d="M90.4318 354.21V337.335H93.2955V354.21H90.4318ZM83.4261 347.205V344.341H100.301V347.205H83.4261Z" fill="#1BD6B4" fill-opacity="0.5"/>
<path d="M134.432 354.21V337.335H137.295V354.21H134.432ZM127.426 347.205V344.341H144.301V347.205H127.426Z" fill="#1BD6B4" fill-opacity="0.5"/>
<path d="M178.432 354.21V337.335H181.295V354.21H178.432ZM171.426 347.205V344.341H188.301V347.205H171.426Z" fill="#1BD6B4" fill-opacity="0.5"/>
<path d="M222.432 354.21V337.335H225.295V354.21H222.432ZM215.426 347.205V344.341H232.301V347.205H215.426Z" fill="#1BD6B4" fill-opacity="0.5"/>
<path d="M266.432 354.21V337.335H269.295V354.21H266.432ZM259.426 347.205V344.341H276.301V347.205H259.426Z" fill="#1BD6B4" fill-opacity="0.5"/>
<path d="M310.432 354.21V337.335H313.295V354.21H310.432ZM303.426 347.205V344.341H320.301V347.205H303.426Z" fill="#1BD6B4" fill-opacity="0.5"/>
<path d="M354.432 354.21V337.335H357.295V354.21H354.432ZM347.426 347.205V344.341H364.301V347.205H347.426Z" fill="#1BD6B4" fill-opacity="0.5"/>
<path d="M398.432 354.21V337.335H401.295V354.21H398.432ZM391.426 347.205V344.341H408.301V347.205H391.426Z" fill="#1BD6B4" fill-opacity="0.5"/>
<path d="M442.432 354.21V337.335H445.295V354.21H442.432ZM435.426 347.205V344.341H452.301V347.205H435.426Z" fill="#1BD6B4" fill-opacity="0.5"/>
<path d="M486.432 354.21V337.335H489.295V354.21H486.432ZM479.426 347.205V344.341H496.301V347.205H479.426Z" fill="#1BD6B4" fill-opacity="0.5"/>
<path d="M530.432 354.21V337.335H533.295V354.21H530.432ZM523.426 347.205V344.341H540.301V347.205H523.426Z" fill="#1BD6B4" fill-opacity="0.5"/>
<path d="M574.432 354.21V337.335H577.295V354.21H574.432ZM567.426 347.205V344.341H584.301V347.205H567.426Z" fill="#1BD6B4" fill-opacity="0.5"/>
<path d="M618.432 354.21V337.335H621.295V354.21H618.432ZM611.426 347.205V344.341H628.301V347.205H611.426Z" fill="#1BD6B4" fill-opacity="0.5"/>
<path d="M662.432 354.21V337.335H665.295V354.21H662.432ZM655.426 347.205V344.341H672.301V347.205H655.426Z" fill="#1BD6B4" fill-opacity="0.5"/>
<path d="M706.432 354.21V337.335H709.295V354.21H706.432ZM699.426 347.205V344.341H716.301V347.205H699.426Z" fill="#1BD6B4" fill-opacity="0.5"/>
<path d="M750.432 354.21V337.335H753.295V354.21H750.432ZM743.426 347.205V344.341H760.301V347.205H743.426Z" fill="#1BD6B4" fill-opacity="0.5"/>
<path d="M794.432 354.21V337.335H797.295V354.21H794.432ZM787.426 347.205V344.341H804.301V347.205H787.426Z" fill="#1BD6B4" fill-opacity="0.5"/>
<path d="M838.432 354.21V337.335H841.295V354.21H838.432ZM831.426 347.205V344.341H848.301V347.205H831.426Z" fill="#1BD6B4" fill-opacity="0.5"/>
<path d="M882.432 354.21V337.335H885.295V354.21H882.432ZM875.426 347.205V344.341H892.301V347.205H875.426Z" fill="#1BD6B4" fill-opacity="0.5"/>
<path d="M926.432 354.21V337.335H929.295V354.21H926.432ZM919.426 347.205V344.341H936.301V347.205H919.426Z" fill="#1BD6B4" fill-opacity="0.5"/>
<path d="M970.432 354.21V337.335H973.295V354.21H970.432ZM963.426 347.205V344.341H980.301V347.205H963.426Z" fill="#1BD6B4" fill-opacity="0.5"/>
<path d="M1014.43 354.21V337.335H1017.3V354.21H1014.43ZM1007.43 347.205V344.341H1024.3V347.205H1007.43Z" fill="#1BD6B4" fill-opacity="0.5"/>
<path d="M1058.43 354.21V337.335H1061.3V354.21H1058.43ZM1051.43 347.205V344.341H1068.3V347.205H1051.43Z" fill="#1BD6B4" fill-opacity="0.5"/>
<path d="M1102.43 354.21V337.335H1105.3V354.21H1102.43ZM1095.43 347.205V344.341H1112.3V347.205H1095.43Z" fill="#1BD6B4" fill-opacity="0.5"/>
<path d="M1146.43 354.21V337.335H1149.3V354.21H1146.43ZM1139.43 347.205V344.341H1156.3V347.205H1139.43Z" fill="#1BD6B4" fill-opacity="0.5"/>
<path d="M1190.43 354.21V337.335H1193.3V354.21H1190.43ZM1183.43 347.205V344.341H1200.3V347.205H1183.43Z" fill="#1BD6B4" fill-opacity="0.5"/>
<path d="M1234.43 354.21V337.335H1237.3V354.21H1234.43ZM1227.43 347.205V344.341H1244.3V347.205H1227.43Z" fill="#1BD6B4" fill-opacity="0.5"/>
<path d="M1278.43 354.21V337.335H1281.3V354.21H1278.43ZM1271.43 347.205V344.341H1288.3V347.205H1271.43Z" fill="#1BD6B4" fill-opacity="0.5"/>
<path d="M1322.43 354.21V337.335H1325.3V354.21H1322.43ZM1315.43 347.205V344.341H1332.3V347.205H1315.43Z" fill="#1BD6B4" fill-opacity="0.5"/>
<path d="M1366.43 354.21V337.335H1369.3V354.21H1366.43ZM1359.43 347.205V344.341H1376.3V347.205H1359.43Z" fill="#1BD6B4" fill-opacity="0.5"/>
<path d="M1410.43 354.21V337.335H1413.3V354.21H1410.43ZM1403.43 347.205V344.341H1420.3V347.205H1403.43Z" fill="#1BD6B4" fill-opacity="0.5"/>
<path d="M46.4318 408.21V391.335H49.2955V408.21H46.4318ZM39.4261 401.205V398.341H56.3011V401.205H39.4261Z" fill="#1BD6B4" fill-opacity="0.5"/>
<path d="M90.4318 408.21V391.335H93.2955V408.21H90.4318ZM83.4261 401.205V398.341H100.301V401.205H83.4261Z" fill="#1BD6B4" fill-opacity="0.5"/>
<path d="M134.432 408.21V391.335H137.295V408.21H134.432ZM127.426 401.205V398.341H144.301V401.205H127.426Z" fill="#1BD6B4" fill-opacity="0.5"/>
<path d="M178.432 408.21V391.335H181.295V408.21H178.432ZM171.426 401.205V398.341H188.301V401.205H171.426Z" fill="#1BD6B4" fill-opacity="0.5"/>
<path d="M222.432 408.21V391.335H225.295V408.21H222.432ZM215.426 401.205V398.341H232.301V401.205H215.426Z" fill="#1BD6B4" fill-opacity="0.5"/>
<path d="M266.432 408.21V391.335H269.295V408.21H266.432ZM259.426 401.205V398.341H276.301V401.205H259.426Z" fill="#1BD6B4" fill-opacity="0.5"/>
<path d="M310.432 408.21V391.335H313.295V408.21H310.432ZM303.426 401.205V398.341H320.301V401.205H303.426Z" fill="#1BD6B4" fill-opacity="0.5"/>
<path d="M354.432 408.21V391.335H357.295V408.21H354.432ZM347.426 401.205V398.341H364.301V401.205H347.426Z" fill="#1BD6B4" fill-opacity="0.5"/>
<path d="M398.432 408.21V391.335H401.295V408.21H398.432ZM391.426 401.205V398.341H408.301V401.205H391.426Z" fill="#1BD6B4" fill-opacity="0.5"/>
<path d="M442.432 408.21V391.335H445.295V408.21H442.432ZM435.426 401.205V398.341H452.301V401.205H435.426Z" fill="#1BD6B4" fill-opacity="0.5"/>
<path d="M486.432 408.21V391.335H489.295V408.21H486.432ZM479.426 401.205V398.341H496.301V401.205H479.426Z" fill="#1BD6B4" fill-opacity="0.5"/>
<path d="M530.432 408.21V391.335H533.295V408.21H530.432ZM523.426 401.205V398.341H540.301V401.205H523.426Z" fill="#1BD6B4" fill-opacity="0.5"/>
<path d="M574.432 408.21V391.335H577.295V408.21H574.432ZM567.426 401.205V398.341H584.301V401.205H567.426Z" fill="#1BD6B4" fill-opacity="0.5"/>
<path d="M618.432 408.21V391.335H621.295V408.21H618.432ZM611.426 401.205V398.341H628.301V401.205H611.426Z" fill="#1BD6B4" fill-opacity="0.5"/>
<path d="M662.432 408.21V391.335H665.295V408.21H662.432ZM655.426 401.205V398.341H672.301V401.205H655.426Z" fill="#1BD6B4" fill-opacity="0.5"/>
<path d="M706.432 408.21V391.335H709.295V408.21H706.432ZM699.426 401.205V398.341H716.301V401.205H699.426Z" fill="#1BD6B4" fill-opacity="0.5"/>
<path d="M750.432 408.21V391.335H753.295V408.21H750.432ZM743.426 401.205V398.341H760.301V401.205H743.426Z" fill="#1BD6B4" fill-opacity="0.5"/>
<path d="M794.432 408.21V391.335H797.295V408.21H794.432ZM787.426 401.205V398.341H804.301V401.205H787.426Z" fill="#1BD6B4" fill-opacity="0.5"/>
<path d="M838.432 408.21V391.335H841.295V408.21H838.432ZM831.426 401.205V398.341H848.301V401.205H831.426Z" fill="#1BD6B4" fill-opacity="0.5"/>
<path d="M882.432 408.21V391.335H885.295V408.21H882.432ZM875.426 401.205V398.341H892.301V401.205H875.426Z" fill="#1BD6B4" fill-opacity="0.5"/>
<path d="M926.432 408.21V391.335H929.295V408.21H926.432ZM919.426 401.205V398.341H936.301V401.205H919.426Z" fill="#1BD6B4" fill-opacity="0.5"/>
<path d="M970.432 408.21V391.335H973.295V408.21H970.432ZM963.426 401.205V398.341H980.301V401.205H963.426Z" fill="#1BD6B4" fill-opacity="0.5"/>
<path d="M1014.43 408.21V391.335H1017.3V408.21H1014.43ZM1007.43 401.205V398.341H1024.3V401.205H1007.43Z" fill="#1BD6B4" fill-opacity="0.5"/>
<path d="M1058.43 408.21V391.335H1061.3V408.21H1058.43ZM1051.43 401.205V398.341H1068.3V401.205H1051.43Z" fill="#1BD6B4" fill-opacity="0.5"/>
<path d="M1102.43 408.21V391.335H1105.3V408.21H1102.43ZM1095.43 401.205V398.341H1112.3V401.205H1095.43Z" fill="#1BD6B4" fill-opacity="0.5"/>
<path d="M1146.43 408.21V391.335H1149.3V408.21H1146.43ZM1139.43 401.205V398.341H1156.3V401.205H1139.43Z" fill="#1BD6B4" fill-opacity="0.5"/>
<path d="M1190.43 408.21V391.335H1193.3V408.21H1190.43ZM1183.43 401.205V398.341H1200.3V401.205H1183.43Z" fill="#1BD6B4" fill-opacity="0.5"/>
<path d="M1234.43 408.21V391.335H1237.3V408.21H1234.43ZM1227.43 401.205V398.341H1244.3V401.205H1227.43Z" fill="#1BD6B4" fill-opacity="0.5"/>
<path d="M1278.43 408.21V391.335H1281.3V408.21H1278.43ZM1271.43 401.205V398.341H1288.3V401.205H1271.43Z" fill="#1BD6B4" fill-opacity="0.5"/>
<path d="M1322.43 408.21V391.335H1325.3V408.21H1322.43ZM1315.43 401.205V398.341H1332.3V401.205H1315.43Z" fill="#1BD6B4" fill-opacity="0.5"/>
<path d="M1366.43 408.21V391.335H1369.3V408.21H1366.43ZM1359.43 401.205V398.341H1376.3V401.205H1359.43Z" fill="#1BD6B4" fill-opacity="0.5"/>
<path d="M1410.43 408.21V391.335H1413.3V408.21H1410.43ZM1403.43 401.205V398.341H1420.3V401.205H1403.43Z" fill="#1BD6B4" fill-opacity="0.5"/>
<path d="M46.4318 462.21V445.335H49.2955V462.21H46.4318ZM39.4261 455.205V452.341H56.3011V455.205H39.4261Z" fill="#1BD6B4" fill-opacity="0.5"/>
<path d="M90.4318 462.21V445.335H93.2955V462.21H90.4318ZM83.4261 455.205V452.341H100.301V455.205H83.4261Z" fill="#1BD6B4" fill-opacity="0.5"/>
<path d="M134.432 462.21V445.335H137.295V462.21H134.432ZM127.426 455.205V452.341H144.301V455.205H127.426Z" fill="#1BD6B4" fill-opacity="0.5"/>
<path d="M178.432 462.21V445.335H181.295V462.21H178.432ZM171.426 455.205V452.341H188.301V455.205H171.426Z" fill="#1BD6B4" fill-opacity="0.5"/>
<path d="M222.432 462.21V445.335H225.295V462.21H222.432ZM215.426 455.205V452.341H232.301V455.205H215.426Z" fill="#1BD6B4" fill-opacity="0.5"/>
<path d="M266.432 462.21V445.335H269.295V462.21H266.432ZM259.426 455.205V452.341H276.301V455.205H259.426Z" fill="#1BD6B4" fill-opacity="0.5"/>
<path d="M310.432 462.21V445.335H313.295V462.21H310.432ZM303.426 455.205V452.341H320.301V455.205H303.426Z" fill="#1BD6B4" fill-opacity="0.5"/>
<path d="M354.432 462.21V445.335H357.295V462.21H354.432ZM347.426 455.205V452.341H364.301V455.205H347.426Z" fill="#1BD6B4" fill-opacity="0.5"/>
<path d="M398.432 462.21V445.335H401.295V462.21H398.432ZM391.426 455.205V452.341H408.301V455.205H391.426Z" fill="#1BD6B4" fill-opacity="0.5"/>
<path d="M442.432 462.21V445.335H445.295V462.21H442.432ZM435.426 455.205V452.341H452.301V455.205H435.426Z" fill="#1BD6B4" fill-opacity="0.5"/>
<path d="M486.432 462.21V445.335H489.295V462.21H486.432ZM479.426 455.205V452.341H496.301V455.205H479.426Z" fill="#1BD6B4" fill-opacity="0.5"/>
<path d="M530.432 462.21V445.335H533.295V462.21H530.432ZM523.426 455.205V452.341H540.301V455.205H523.426Z" fill="#1BD6B4" fill-opacity="0.5"/>
<path d="M574.432 462.21V445.335H577.295V462.21H574.432ZM567.426 455.205V452.341H584.301V455.205H567.426Z" fill="#1BD6B4" fill-opacity="0.5"/>
<path d="M618.432 462.21V445.335H621.295V462.21H618.432ZM611.426 455.205V452.341H628.301V455.205H611.426Z" fill="#1BD6B4" fill-opacity="0.5"/>
<path d="M662.432 462.21V445.335H665.295V462.21H662.432ZM655.426 455.205V452.341H672.301V455.205H655.426Z" fill="#1BD6B4" fill-opacity="0.5"/>
<path d="M706.432 462.21V445.335H709.295V462.21H706.432ZM699.426 455.205V452.341H716.301V455.205H699.426Z" fill="#1BD6B4" fill-opacity="0.5"/>
<path d="M750.432 462.21V445.335H753.295V462.21H750.432ZM743.426 455.205V452.341H760.301V455.205H743.426Z" fill="#1BD6B4" fill-opacity="0.5"/>
<path d="M794.432 462.21V445.335H797.295V462.21H794.432ZM787.426 455.205V452.341H804.301V455.205H787.426Z" fill="#1BD6B4" fill-opacity="0.5"/>
<path d="M838.432 462.21V445.335H841.295V462.21H838.432ZM831.426 455.205V452.341H848.301V455.205H831.426Z" fill="#1BD6B4" fill-opacity="0.5"/>
<path d="M882.432 462.21V445.335H885.295V462.21H882.432ZM875.426 455.205V452.341H892.301V455.205H875.426Z" fill="#1BD6B4" fill-opacity="0.5"/>
<path d="M926.432 462.21V445.335H929.295V462.21H926.432ZM919.426 455.205V452.341H936.301V455.205H919.426Z" fill="#1BD6B4" fill-opacity="0.5"/>
<path d="M970.432 462.21V445.335H973.295V462.21H970.432ZM963.426 455.205V452.341H980.301V455.205H963.426Z" fill="#1BD6B4" fill-opacity="0.5"/>
<path d="M1014.43 462.21V445.335H1017.3V462.21H1014.43ZM1007.43 455.205V452.341H1024.3V455.205H1007.43Z" fill="#1BD6B4" fill-opacity="0.5"/>
<path d="M1058.43 462.21V445.335H1061.3V462.21H1058.43ZM1051.43 455.205V452.341H1068.3V455.205H1051.43Z" fill="#1BD6B4" fill-opacity="0.5"/>
<path d="M1102.43 462.21V445.335H1105.3V462.21H1102.43ZM1095.43 455.205V452.341H1112.3V455.205H1095.43Z" fill="#1BD6B4" fill-opacity="0.5"/>
<path d="M1146.43 462.21V445.335H1149.3V462.21H1146.43ZM1139.43 455.205V452.341H1156.3V455.205H1139.43Z" fill="#1BD6B4" fill-opacity="0.5"/>
<path d="M1190.43 462.21V445.335H1193.3V462.21H1190.43ZM1183.43 455.205V452.341H1200.3V455.205H1183.43Z" fill="#1BD6B4" fill-opacity="0.5"/>
<path d="M1234.43 462.21V445.335H1237.3V462.21H1234.43ZM1227.43 455.205V452.341H1244.3V455.205H1227.43Z" fill="#1BD6B4" fill-opacity="0.5"/>
<path d="M1278.43 462.21V445.335H1281.3V462.21H1278.43ZM1271.43 455.205V452.341H1288.3V455.205H1271.43Z" fill="#1BD6B4" fill-opacity="0.5"/>
<path d="M1322.43 462.21V445.335H1325.3V462.21H1322.43ZM1315.43 455.205V452.341H1332.3V455.205H1315.43Z" fill="#1BD6B4" fill-opacity="0.5"/>
<path d="M1366.43 462.21V445.335H1369.3V462.21H1366.43ZM1359.43 455.205V452.341H1376.3V455.205H1359.43Z" fill="#1BD6B4" fill-opacity="0.5"/>
<path d="M1410.43 462.21V445.335H1413.3V462.21H1410.43ZM1403.43 455.205V452.341H1420.3V455.205H1403.43Z" fill="#1BD6B4" fill-opacity="0.5"/>
<path d="M46.4318 516.21V499.335H49.2955V516.21H46.4318ZM39.4261 509.205V506.341H56.3011V509.205H39.4261Z" fill="#1BD6B4" fill-opacity="0.5"/>
<path d="M90.4318 516.21V499.335H93.2955V516.21H90.4318ZM83.4261 509.205V506.341H100.301V509.205H83.4261Z" fill="#1BD6B4" fill-opacity="0.5"/>
<path d="M134.432 516.21V499.335H137.295V516.21H134.432ZM127.426 509.205V506.341H144.301V509.205H127.426Z" fill="#1BD6B4" fill-opacity="0.5"/>
<path d="M178.432 516.21V499.335H181.295V516.21H178.432ZM171.426 509.205V506.341H188.301V509.205H171.426Z" fill="#1BD6B4" fill-opacity="0.5"/>
<path d="M222.432 516.21V499.335H225.295V516.21H222.432ZM215.426 509.205V506.341H232.301V509.205H215.426Z" fill="#1BD6B4" fill-opacity="0.5"/>
<path d="M266.432 516.21V499.335H269.295V516.21H266.432ZM259.426 509.205V506.341H276.301V509.205H259.426Z" fill="#1BD6B4" fill-opacity="0.5"/>
<path d="M310.432 516.21V499.335H313.295V516.21H310.432ZM303.426 509.205V506.341H320.301V509.205H303.426Z" fill="#1BD6B4" fill-opacity="0.5"/>
<path d="M354.432 516.21V499.335H357.295V516.21H354.432ZM347.426 509.205V506.341H364.301V509.205H347.426Z" fill="#1BD6B4" fill-opacity="0.5"/>
<path d="M398.432 516.21V499.335H401.295V516.21H398.432ZM391.426 509.205V506.341H408.301V509.205H391.426Z" fill="#1BD6B4" fill-opacity="0.5"/>
<path d="M442.432 516.21V499.335H445.295V516.21H442.432ZM435.426 509.205V506.341H452.301V509.205H435.426Z" fill="#1BD6B4" fill-opacity="0.5"/>
<path d="M486.432 516.21V499.335H489.295V516.21H486.432ZM479.426 509.205V506.341H496.301V509.205H479.426Z" fill="#1BD6B4" fill-opacity="0.5"/>
<path d="M530.432 516.21V499.335H533.295V516.21H530.432ZM523.426 509.205V506.341H540.301V509.205H523.426Z" fill="#1BD6B4" fill-opacity="0.5"/>
<path d="M574.432 516.21V499.335H577.295V516.21H574.432ZM567.426 509.205V506.341H584.301V509.205H567.426Z" fill="#1BD6B4" fill-opacity="0.5"/>
<path d="M618.432 516.21V499.335H621.295V516.21H618.432ZM611.426 509.205V506.341H628.301V509.205H611.426Z" fill="#1BD6B4" fill-opacity="0.5"/>
<path d="M662.432 516.21V499.335H665.295V516.21H662.432ZM655.426 509.205V506.341H672.301V509.205H655.426Z" fill="#1BD6B4" fill-opacity="0.5"/>
<path d="M706.432 516.21V499.335H709.295V516.21H706.432ZM699.426 509.205V506.341H716.301V509.205H699.426Z" fill="#1BD6B4" fill-opacity="0.5"/>
<path d="M750.432 516.21V499.335H753.295V516.21H750.432ZM743.426 509.205V506.341H760.301V509.205H743.426Z" fill="#1BD6B4" fill-opacity="0.5"/>
<path d="M794.432 516.21V499.335H797.295V516.21H794.432ZM787.426 509.205V506.341H804.301V509.205H787.426Z" fill="#1BD6B4" fill-opacity="0.5"/>
<path d="M838.432 516.21V499.335H841.295V516.21H838.432ZM831.426 509.205V506.341H848.301V509.205H831.426Z" fill="#1BD6B4" fill-opacity="0.5"/>
<path d="M882.432 516.21V499.335H885.295V516.21H882.432ZM875.426 509.205V506.341H892.301V509.205H875.426Z" fill="#1BD6B4" fill-opacity="0.5"/>
<path d="M926.432 516.21V499.335H929.295V516.21H926.432ZM919.426 509.205V506.341H936.301V509.205H919.426Z" fill="#1BD6B4" fill-opacity="0.5"/>
<path d="M970.432 516.21V499.335H973.295V516.21H970.432ZM963.426 509.205V506.341H980.301V509.205H963.426Z" fill="#1BD6B4" fill-opacity="0.5"/>
<path d="M1014.43 516.21V499.335H1017.3V516.21H1014.43ZM1007.43 509.205V506.341H1024.3V509.205H1007.43Z" fill="#1BD6B4" fill-opacity="0.5"/>
<path d="M1058.43 516.21V499.335H1061.3V516.21H1058.43ZM1051.43 509.205V506.341H1068.3V509.205H1051.43Z" fill="#1BD6B4" fill-opacity="0.5"/>
<path d="M1102.43 516.21V499.335H1105.3V516.21H1102.43ZM1095.43 509.205V506.341H1112.3V509.205H1095.43Z" fill="#1BD6B4" fill-opacity="0.5"/>
<path d="M1146.43 516.21V499.335H1149.3V516.21H1146.43ZM1139.43 509.205V506.341H1156.3V509.205H1139.43Z" fill="#1BD6B4" fill-opacity="0.5"/>
<path d="M1190.43 516.21V499.335H1193.3V516.21H1190.43ZM1183.43 509.205V506.341H1200.3V509.205H1183.43Z" fill="#1BD6B4" fill-opacity="0.5"/>
<path d="M1234.43 516.21V499.335H1237.3V516.21H1234.43ZM1227.43 509.205V506.341H1244.3V509.205H1227.43Z" fill="#1BD6B4" fill-opacity="0.5"/>
<path d="M1278.43 516.21V499.335H1281.3V516.21H1278.43ZM1271.43 509.205V506.341H1288.3V509.205H1271.43Z" fill="#1BD6B4" fill-opacity="0.5"/>
<path d="M1322.43 516.21V499.335H1325.3V516.21H1322.43ZM1315.43 509.205V506.341H1332.3V509.205H1315.43Z" fill="#1BD6B4" fill-opacity="0.5"/>
<path d="M1366.43 516.21V499.335H1369.3V516.21H1366.43ZM1359.43 509.205V506.341H1376.3V509.205H1359.43Z" fill="#1BD6B4" fill-opacity="0.5"/>
<path d="M1410.43 516.21V499.335H1413.3V516.21H1410.43ZM1403.43 509.205V506.341H1420.3V509.205H1403.43Z" fill="#1BD6B4" fill-opacity="0.5"/>
<path d="M36.4318 40.2102V23.3352H39.2955V40.2102H36.4318ZM29.4261 33.2045V30.3409H46.3011V33.2045H29.4261Z" fill="#165045" fill-opacity="0.5"/>
<path d="M80.4318 40.2102V23.3352H83.2955V40.2102H80.4318ZM73.4261 33.2045V30.3409H90.3011V33.2045H73.4261Z" fill="#165045" fill-opacity="0.5"/>
<path d="M124.432 40.2102V23.3352H127.295V40.2102H124.432ZM117.426 33.2045V30.3409H134.301V33.2045H117.426Z" fill="#165045" fill-opacity="0.5"/>
<path d="M168.432 40.2102V23.3352H171.295V40.2102H168.432ZM161.426 33.2045V30.3409H178.301V33.2045H161.426Z" fill="#165045" fill-opacity="0.5"/>
<path d="M212.432 40.2102V23.3352H215.295V40.2102H212.432ZM205.426 33.2045V30.3409H222.301V33.2045H205.426Z" fill="#165045" fill-opacity="0.5"/>
<path d="M256.432 40.2102V23.3352H259.295V40.2102H256.432ZM249.426 33.2045V30.3409H266.301V33.2045H249.426Z" fill="#165045" fill-opacity="0.5"/>
<path d="M300.432 40.2102V23.3352H303.295V40.2102H300.432ZM293.426 33.2045V30.3409H310.301V33.2045H293.426Z" fill="#165045" fill-opacity="0.5"/>
<path d="M344.432 40.2102V23.3352H347.295V40.2102H344.432ZM337.426 33.2045V30.3409H354.301V33.2045H337.426Z" fill="#165045" fill-opacity="0.5"/>
<path d="M388.432 40.2102V23.3352H391.295V40.2102H388.432ZM381.426 33.2045V30.3409H398.301V33.2045H381.426Z" fill="#165045" fill-opacity="0.5"/>
<path d="M432.432 40.2102V23.3352H435.295V40.2102H432.432ZM425.426 33.2045V30.3409H442.301V33.2045H425.426Z" fill="#165045" fill-opacity="0.5"/>
<path d="M476.432 40.2102V23.3352H479.295V40.2102H476.432ZM469.426 33.2045V30.3409H486.301V33.2045H469.426Z" fill="#165045" fill-opacity="0.5"/>
<path d="M520.432 40.2102V23.3352H523.295V40.2102H520.432ZM513.426 33.2045V30.3409H530.301V33.2045H513.426Z" fill="#165045" fill-opacity="0.5"/>
<path d="M564.432 40.2102V23.3352H567.295V40.2102H564.432ZM557.426 33.2045V30.3409H574.301V33.2045H557.426Z" fill="#165045" fill-opacity="0.5"/>
<path d="M608.432 40.2102V23.3352H611.295V40.2102H608.432ZM601.426 33.2045V30.3409H618.301V33.2045H601.426Z" fill="#165045" fill-opacity="0.5"/>
<path d="M652.432 40.2102V23.3352H655.295V40.2102H652.432ZM645.426 33.2045V30.3409H662.301V33.2045H645.426Z" fill="#165045" fill-opacity="0.5"/>
<path d="M696.432 40.2102V23.3352H699.295V40.2102H696.432ZM689.426 33.2045V30.3409H706.301V33.2045H689.426Z" fill="#165045" fill-opacity="0.5"/>
<path d="M740.432 40.2102V23.3352H743.295V40.2102H740.432ZM733.426 33.2045V30.3409H750.301V33.2045H733.426Z" fill="#165045" fill-opacity="0.5"/>
<path d="M784.432 40.2102V23.3352H787.295V40.2102H784.432ZM777.426 33.2045V30.3409H794.301V33.2045H777.426Z" fill="#165045" fill-opacity="0.5"/>
<path d="M828.432 40.2102V23.3352H831.295V40.2102H828.432ZM821.426 33.2045V30.3409H838.301V33.2045H821.426Z" fill="#165045" fill-opacity="0.5"/>
<path d="M872.432 40.2102V23.3352H875.295V40.2102H872.432ZM865.426 33.2045V30.3409H882.301V33.2045H865.426Z" fill="#165045" fill-opacity="0.5"/>
<path d="M916.432 40.2102V23.3352H919.295V40.2102H916.432ZM909.426 33.2045V30.3409H926.301V33.2045H909.426Z" fill="#165045" fill-opacity="0.5"/>
<path d="M960.432 40.2102V23.3352H963.295V40.2102H960.432ZM953.426 33.2045V30.3409H970.301V33.2045H953.426Z" fill="#165045" fill-opacity="0.5"/>
<path d="M1004.43 40.2102V23.3352H1007.3V40.2102H1004.43ZM997.426 33.2045V30.3409H1014.3V33.2045H997.426Z" fill="#165045" fill-opacity="0.5"/>
<path d="M1048.43 40.2102V23.3352H1051.3V40.2102H1048.43ZM1041.43 33.2045V30.3409H1058.3V33.2045H1041.43Z" fill="#165045" fill-opacity="0.5"/>
<path d="M1092.43 40.2102V23.3352H1095.3V40.2102H1092.43ZM1085.43 33.2045V30.3409H1102.3V33.2045H1085.43Z" fill="#165045" fill-opacity="0.5"/>
<path d="M1136.43 40.2102V23.3352H1139.3V40.2102H1136.43ZM1129.43 33.2045V30.3409H1146.3V33.2045H1129.43Z" fill="#165045" fill-opacity="0.5"/>
<path d="M1180.43 40.2102V23.3352H1183.3V40.2102H1180.43ZM1173.43 33.2045V30.3409H1190.3V33.2045H1173.43Z" fill="#165045" fill-opacity="0.5"/>
<path d="M1224.43 40.2102V23.3352H1227.3V40.2102H1224.43ZM1217.43 33.2045V30.3409H1234.3V33.2045H1217.43Z" fill="#165045" fill-opacity="0.5"/>
<path d="M1268.43 40.2102V23.3352H1271.3V40.2102H1268.43ZM1261.43 33.2045V30.3409H1278.3V33.2045H1261.43Z" fill="#165045" fill-opacity="0.5"/>
<path d="M1312.43 40.2102V23.3352H1315.3V40.2102H1312.43ZM1305.43 33.2045V30.3409H1322.3V33.2045H1305.43Z" fill="#165045" fill-opacity="0.5"/>
<path d="M1356.43 40.2102V23.3352H1359.3V40.2102H1356.43ZM1349.43 33.2045V30.3409H1366.3V33.2045H1349.43Z" fill="#165045" fill-opacity="0.5"/>
<path d="M1400.43 40.2102V23.3352H1403.3V40.2102H1400.43ZM1393.43 33.2045V30.3409H1410.3V33.2045H1393.43Z" fill="#165045" fill-opacity="0.5"/>
<path d="M36.4318 94.2102V77.3352H39.2955V94.2102H36.4318ZM29.4261 87.2045V84.3409H46.3011V87.2045H29.4261Z" fill="#165045" fill-opacity="0.5"/>
<path d="M80.4318 94.2102V77.3352H83.2955V94.2102H80.4318ZM73.4261 87.2045V84.3409H90.3011V87.2045H73.4261Z" fill="#165045" fill-opacity="0.5"/>
<path d="M124.432 94.2102V77.3352H127.295V94.2102H124.432ZM117.426 87.2045V84.3409H134.301V87.2045H117.426Z" fill="#165045" fill-opacity="0.5"/>
<path d="M168.432 94.2102V77.3352H171.295V94.2102H168.432ZM161.426 87.2045V84.3409H178.301V87.2045H161.426Z" fill="#165045" fill-opacity="0.5"/>
<path d="M212.432 94.2102V77.3352H215.295V94.2102H212.432ZM205.426 87.2045V84.3409H222.301V87.2045H205.426Z" fill="#165045" fill-opacity="0.5"/>
<path d="M256.432 94.2102V77.3352H259.295V94.2102H256.432ZM249.426 87.2045V84.3409H266.301V87.2045H249.426Z" fill="#165045" fill-opacity="0.5"/>
<path d="M300.432 94.2102V77.3352H303.295V94.2102H300.432ZM293.426 87.2045V84.3409H310.301V87.2045H293.426Z" fill="#165045" fill-opacity="0.5"/>
<path d="M344.432 94.2102V77.3352H347.295V94.2102H344.432ZM337.426 87.2045V84.3409H354.301V87.2045H337.426Z" fill="#165045" fill-opacity="0.5"/>
<path d="M388.432 94.2102V77.3352H391.295V94.2102H388.432ZM381.426 87.2045V84.3409H398.301V87.2045H381.426Z" fill="#165045" fill-opacity="0.5"/>
<path d="M432.432 94.2102V77.3352H435.295V94.2102H432.432ZM425.426 87.2045V84.3409H442.301V87.2045H425.426Z" fill="#165045" fill-opacity="0.5"/>
<path d="M476.432 94.2102V77.3352H479.295V94.2102H476.432ZM469.426 87.2045V84.3409H486.301V87.2045H469.426Z" fill="#165045" fill-opacity="0.5"/>
<path d="M520.432 94.2102V77.3352H523.295V94.2102H520.432ZM513.426 87.2045V84.3409H530.301V87.2045H513.426Z" fill="#165045" fill-opacity="0.5"/>
<path d="M564.432 94.2102V77.3352H567.295V94.2102H564.432ZM557.426 87.2045V84.3409H574.301V87.2045H557.426Z" fill="#165045" fill-opacity="0.5"/>
<path d="M608.432 94.2102V77.3352H611.295V94.2102H608.432ZM601.426 87.2045V84.3409H618.301V87.2045H601.426Z" fill="#165045" fill-opacity="0.5"/>
<path d="M652.432 94.2102V77.3352H655.295V94.2102H652.432ZM645.426 87.2045V84.3409H662.301V87.2045H645.426Z" fill="#165045" fill-opacity="0.5"/>
<path d="M696.432 94.2102V77.3352H699.295V94.2102H696.432ZM689.426 87.2045V84.3409H706.301V87.2045H689.426Z" fill="#165045" fill-opacity="0.5"/>
<path d="M740.432 94.2102V77.3352H743.295V94.2102H740.432ZM733.426 87.2045V84.3409H750.301V87.2045H733.426Z" fill="#165045" fill-opacity="0.5"/>
<path d="M784.432 94.2102V77.3352H787.295V94.2102H784.432ZM777.426 87.2045V84.3409H794.301V87.2045H777.426Z" fill="#165045" fill-opacity="0.5"/>
<path d="M828.432 94.2102V77.3352H831.295V94.2102H828.432ZM821.426 87.2045V84.3409H838.301V87.2045H821.426Z" fill="#165045" fill-opacity="0.5"/>
<path d="M872.432 94.2102V77.3352H875.295V94.2102H872.432ZM865.426 87.2045V84.3409H882.301V87.2045H865.426Z" fill="#165045" fill-opacity="0.5"/>
<path d="M916.432 94.2102V77.3352H919.295V94.2102H916.432ZM909.426 87.2045V84.3409H926.301V87.2045H909.426Z" fill="#165045" fill-opacity="0.5"/>
<path d="M960.432 94.2102V77.3352H963.295V94.2102H960.432ZM953.426 87.2045V84.3409H970.301V87.2045H953.426Z" fill="#165045" fill-opacity="0.5"/>
<path d="M1004.43 94.2102V77.3352H1007.3V94.2102H1004.43ZM997.426 87.2045V84.3409H1014.3V87.2045H997.426Z" fill="#165045" fill-opacity="0.5"/>
<path d="M1048.43 94.2102V77.3352H1051.3V94.2102H1048.43ZM1041.43 87.2045V84.3409H1058.3V87.2045H1041.43Z" fill="#165045" fill-opacity="0.5"/>
<path d="M1092.43 94.2102V77.3352H1095.3V94.2102H1092.43ZM1085.43 87.2045V84.3409H1102.3V87.2045H1085.43Z" fill="#165045" fill-opacity="0.5"/>
<path d="M1136.43 94.2102V77.3352H1139.3V94.2102H1136.43ZM1129.43 87.2045V84.3409H1146.3V87.2045H1129.43Z" fill="#165045" fill-opacity="0.5"/>
<path d="M1180.43 94.2102V77.3352H1183.3V94.2102H1180.43ZM1173.43 87.2045V84.3409H1190.3V87.2045H1173.43Z" fill="#165045" fill-opacity="0.5"/>
<path d="M1224.43 94.2102V77.3352H1227.3V94.2102H1224.43ZM1217.43 87.2045V84.3409H1234.3V87.2045H1217.43Z" fill="#165045" fill-opacity="0.5"/>
<path d="M1268.43 94.2102V77.3352H1271.3V94.2102H1268.43ZM1261.43 87.2045V84.3409H1278.3V87.2045H1261.43Z" fill="#165045" fill-opacity="0.5"/>
<path d="M1312.43 94.2102V77.3352H1315.3V94.2102H1312.43ZM1305.43 87.2045V84.3409H1322.3V87.2045H1305.43Z" fill="#165045" fill-opacity="0.5"/>
<path d="M1356.43 94.2102V77.3352H1359.3V94.2102H1356.43ZM1349.43 87.2045V84.3409H1366.3V87.2045H1349.43Z" fill="#165045" fill-opacity="0.5"/>
<path d="M1400.43 94.2102V77.3352H1403.3V94.2102H1400.43ZM1393.43 87.2045V84.3409H1410.3V87.2045H1393.43Z" fill="#165045" fill-opacity="0.5"/>
<path d="M36.4318 148.21V131.335H39.2955V148.21H36.4318ZM29.4261 141.205V138.341H46.3011V141.205H29.4261Z" fill="#165045" fill-opacity="0.5"/>
<path d="M80.4318 148.21V131.335H83.2955V148.21H80.4318ZM73.4261 141.205V138.341H90.3011V141.205H73.4261Z" fill="#165045" fill-opacity="0.5"/>
<path d="M124.432 148.21V131.335H127.295V148.21H124.432ZM117.426 141.205V138.341H134.301V141.205H117.426Z" fill="#165045" fill-opacity="0.5"/>
<path d="M168.432 148.21V131.335H171.295V148.21H168.432ZM161.426 141.205V138.341H178.301V141.205H161.426Z" fill="#165045" fill-opacity="0.5"/>
<path d="M212.432 148.21V131.335H215.295V148.21H212.432ZM205.426 141.205V138.341H222.301V141.205H205.426Z" fill="#165045" fill-opacity="0.5"/>
<path d="M256.432 148.21V131.335H259.295V148.21H256.432ZM249.426 141.205V138.341H266.301V141.205H249.426Z" fill="#165045" fill-opacity="0.5"/>
<path d="M300.432 148.21V131.335H303.295V148.21H300.432ZM293.426 141.205V138.341H310.301V141.205H293.426Z" fill="#165045" fill-opacity="0.5"/>
<path d="M344.432 148.21V131.335H347.295V148.21H344.432ZM337.426 141.205V138.341H354.301V141.205H337.426Z" fill="#165045" fill-opacity="0.5"/>
<path d="M388.432 148.21V131.335H391.295V148.21H388.432ZM381.426 141.205V138.341H398.301V141.205H381.426Z" fill="#165045" fill-opacity="0.5"/>
<path d="M432.432 148.21V131.335H435.295V148.21H432.432ZM425.426 141.205V138.341H442.301V141.205H425.426Z" fill="#165045" fill-opacity="0.5"/>
<path d="M476.432 148.21V131.335H479.295V148.21H476.432ZM469.426 141.205V138.341H486.301V141.205H469.426Z" fill="#165045" fill-opacity="0.5"/>
<path d="M520.432 148.21V131.335H523.295V148.21H520.432ZM513.426 141.205V138.341H530.301V141.205H513.426Z" fill="#165045" fill-opacity="0.5"/>
<path d="M564.432 148.21V131.335H567.295V148.21H564.432ZM557.426 141.205V138.341H574.301V141.205H557.426Z" fill="#165045" fill-opacity="0.5"/>
<path d="M608.432 148.21V131.335H611.295V148.21H608.432ZM601.426 141.205V138.341H618.301V141.205H601.426Z" fill="#165045" fill-opacity="0.5"/>
<path d="M652.432 148.21V131.335H655.295V148.21H652.432ZM645.426 141.205V138.341H662.301V141.205H645.426Z" fill="#165045" fill-opacity="0.5"/>
<path d="M696.432 148.21V131.335H699.295V148.21H696.432ZM689.426 141.205V138.341H706.301V141.205H689.426Z" fill="#165045" fill-opacity="0.5"/>
<path d="M740.432 148.21V131.335H743.295V148.21H740.432ZM733.426 141.205V138.341H750.301V141.205H733.426Z" fill="#165045" fill-opacity="0.5"/>
<path d="M784.432 148.21V131.335H787.295V148.21H784.432ZM777.426 141.205V138.341H794.301V141.205H777.426Z" fill="#165045" fill-opacity="0.5"/>
<path d="M828.432 148.21V131.335H831.295V148.21H828.432ZM821.426 141.205V138.341H838.301V141.205H821.426Z" fill="#165045" fill-opacity="0.5"/>
<path d="M872.432 148.21V131.335H875.295V148.21H872.432ZM865.426 141.205V138.341H882.301V141.205H865.426Z" fill="#165045" fill-opacity="0.5"/>
<path d="M916.432 148.21V131.335H919.295V148.21H916.432ZM909.426 141.205V138.341H926.301V141.205H909.426Z" fill="#165045" fill-opacity="0.5"/>
<path d="M960.432 148.21V131.335H963.295V148.21H960.432ZM953.426 141.205V138.341H970.301V141.205H953.426Z" fill="#165045" fill-opacity="0.5"/>
<path d="M1004.43 148.21V131.335H1007.3V148.21H1004.43ZM997.426 141.205V138.341H1014.3V141.205H997.426Z" fill="#165045" fill-opacity="0.5"/>
<path d="M1048.43 148.21V131.335H1051.3V148.21H1048.43ZM1041.43 141.205V138.341H1058.3V141.205H1041.43Z" fill="#165045" fill-opacity="0.5"/>
<path d="M1092.43 148.21V131.335H1095.3V148.21H1092.43ZM1085.43 141.205V138.341H1102.3V141.205H1085.43Z" fill="#165045" fill-opacity="0.5"/>
<path d="M1136.43 148.21V131.335H1139.3V148.21H1136.43ZM1129.43 141.205V138.341H1146.3V141.205H1129.43Z" fill="#165045" fill-opacity="0.5"/>
<path d="M1180.43 148.21V131.335H1183.3V148.21H1180.43ZM1173.43 141.205V138.341H1190.3V141.205H1173.43Z" fill="#165045" fill-opacity="0.5"/>
<path d="M1224.43 148.21V131.335H1227.3V148.21H1224.43ZM1217.43 141.205V138.341H1234.3V141.205H1217.43Z" fill="#165045" fill-opacity="0.5"/>
<path d="M1268.43 148.21V131.335H1271.3V148.21H1268.43ZM1261.43 141.205V138.341H1278.3V141.205H1261.43Z" fill="#165045" fill-opacity="0.5"/>
<path d="M1312.43 148.21V131.335H1315.3V148.21H1312.43ZM1305.43 141.205V138.341H1322.3V141.205H1305.43Z" fill="#165045" fill-opacity="0.5"/>
<path d="M1356.43 148.21V131.335H1359.3V148.21H1356.43ZM1349.43 141.205V138.341H1366.3V141.205H1349.43Z" fill="#165045" fill-opacity="0.5"/>
<path d="M1400.43 148.21V131.335H1403.3V148.21H1400.43ZM1393.43 141.205V138.341H1410.3V141.205H1393.43Z" fill="#165045" fill-opacity="0.5"/>
<path d="M36.4318 202.21V185.335H39.2955V202.21H36.4318ZM29.4261 195.205V192.341H46.3011V195.205H29.4261Z" fill="#165045" fill-opacity="0.5"/>
<path d="M80.4318 202.21V185.335H83.2955V202.21H80.4318ZM73.4261 195.205V192.341H90.3011V195.205H73.4261Z" fill="#165045" fill-opacity="0.5"/>
<path d="M124.432 202.21V185.335H127.295V202.21H124.432ZM117.426 195.205V192.341H134.301V195.205H117.426Z" fill="#165045" fill-opacity="0.5"/>
<path d="M168.432 202.21V185.335H171.295V202.21H168.432ZM161.426 195.205V192.341H178.301V195.205H161.426Z" fill="#165045" fill-opacity="0.5"/>
<path d="M212.432 202.21V185.335H215.295V202.21H212.432ZM205.426 195.205V192.341H222.301V195.205H205.426Z" fill="#165045" fill-opacity="0.5"/>
<path d="M256.432 202.21V185.335H259.295V202.21H256.432ZM249.426 195.205V192.341H266.301V195.205H249.426Z" fill="#165045" fill-opacity="0.5"/>
<path d="M300.432 202.21V185.335H303.295V202.21H300.432ZM293.426 195.205V192.341H310.301V195.205H293.426Z" fill="#165045" fill-opacity="0.5"/>
<path d="M344.432 202.21V185.335H347.295V202.21H344.432ZM337.426 195.205V192.341H354.301V195.205H337.426Z" fill="#165045" fill-opacity="0.5"/>
<path d="M388.432 202.21V185.335H391.295V202.21H388.432ZM381.426 195.205V192.341H398.301V195.205H381.426Z" fill="#165045" fill-opacity="0.5"/>
<path d="M432.432 202.21V185.335H435.295V202.21H432.432ZM425.426 195.205V192.341H442.301V195.205H425.426Z" fill="#165045" fill-opacity="0.5"/>
<path d="M476.432 202.21V185.335H479.295V202.21H476.432ZM469.426 195.205V192.341H486.301V195.205H469.426Z" fill="#165045" fill-opacity="0.5"/>
<path d="M520.432 202.21V185.335H523.295V202.21H520.432ZM513.426 195.205V192.341H530.301V195.205H513.426Z" fill="#165045" fill-opacity="0.5"/>
<path d="M564.432 202.21V185.335H567.295V202.21H564.432ZM557.426 195.205V192.341H574.301V195.205H557.426Z" fill="#165045" fill-opacity="0.5"/>
<path d="M608.432 202.21V185.335H611.295V202.21H608.432ZM601.426 195.205V192.341H618.301V195.205H601.426Z" fill="#165045" fill-opacity="0.5"/>
<path d="M652.432 202.21V185.335H655.295V202.21H652.432ZM645.426 195.205V192.341H662.301V195.205H645.426Z" fill="#165045" fill-opacity="0.5"/>
<path d="M696.432 202.21V185.335H699.295V202.21H696.432ZM689.426 195.205V192.341H706.301V195.205H689.426Z" fill="#165045" fill-opacity="0.5"/>
<path d="M740.432 202.21V185.335H743.295V202.21H740.432ZM733.426 195.205V192.341H750.301V195.205H733.426Z" fill="#165045" fill-opacity="0.5"/>
<path d="M784.432 202.21V185.335H787.295V202.21H784.432ZM777.426 195.205V192.341H794.301V195.205H777.426Z" fill="#165045" fill-opacity="0.5"/>
<path d="M828.432 202.21V185.335H831.295V202.21H828.432ZM821.426 195.205V192.341H838.301V195.205H821.426Z" fill="#165045" fill-opacity="0.5"/>
<path d="M872.432 202.21V185.335H875.295V202.21H872.432ZM865.426 195.205V192.341H882.301V195.205H865.426Z" fill="#165045" fill-opacity="0.5"/>
<path d="M916.432 202.21V185.335H919.295V202.21H916.432ZM909.426 195.205V192.341H926.301V195.205H909.426Z" fill="#165045" fill-opacity="0.5"/>
<path d="M960.432 202.21V185.335H963.295V202.21H960.432ZM953.426 195.205V192.341H970.301V195.205H953.426Z" fill="#165045" fill-opacity="0.5"/>
<path d="M1004.43 202.21V185.335H1007.3V202.21H1004.43ZM997.426 195.205V192.341H1014.3V195.205H997.426Z" fill="#165045" fill-opacity="0.5"/>
<path d="M1048.43 202.21V185.335H1051.3V202.21H1048.43ZM1041.43 195.205V192.341H1058.3V195.205H1041.43Z" fill="#165045" fill-opacity="0.5"/>
<path d="M1092.43 202.21V185.335H1095.3V202.21H1092.43ZM1085.43 195.205V192.341H1102.3V195.205H1085.43Z" fill="#165045" fill-opacity="0.5"/>
<path d="M1136.43 202.21V185.335H1139.3V202.21H1136.43ZM1129.43 195.205V192.341H1146.3V195.205H1129.43Z" fill="#165045" fill-opacity="0.5"/>
<path d="M1180.43 202.21V185.335H1183.3V202.21H1180.43ZM1173.43 195.205V192.341H1190.3V195.205H1173.43Z" fill="#165045" fill-opacity="0.5"/>
<path d="M1224.43 202.21V185.335H1227.3V202.21H1224.43ZM1217.43 195.205V192.341H1234.3V195.205H1217.43Z" fill="#165045" fill-opacity="0.5"/>
<path d="M1268.43 202.21V185.335H1271.3V202.21H1268.43ZM1261.43 195.205V192.341H1278.3V195.205H1261.43Z" fill="#165045" fill-opacity="0.5"/>
<path d="M1312.43 202.21V185.335H1315.3V202.21H1312.43ZM1305.43 195.205V192.341H1322.3V195.205H1305.43Z" fill="#165045" fill-opacity="0.5"/>
<path d="M1356.43 202.21V185.335H1359.3V202.21H1356.43ZM1349.43 195.205V192.341H1366.3V195.205H1349.43Z" fill="#165045" fill-opacity="0.5"/>
<path d="M1400.43 202.21V185.335H1403.3V202.21H1400.43ZM1393.43 195.205V192.341H1410.3V195.205H1393.43Z" fill="#165045" fill-opacity="0.5"/>
<path d="M36.4318 256.21V239.335H39.2955V256.21H36.4318ZM29.4261 249.205V246.341H46.3011V249.205H29.4261Z" fill="#165045" fill-opacity="0.5"/>
<path d="M80.4318 256.21V239.335H83.2955V256.21H80.4318ZM73.4261 249.205V246.341H90.3011V249.205H73.4261Z" fill="#165045" fill-opacity="0.5"/>
<path d="M124.432 256.21V239.335H127.295V256.21H124.432ZM117.426 249.205V246.341H134.301V249.205H117.426Z" fill="#165045" fill-opacity="0.5"/>
<path d="M168.432 256.21V239.335H171.295V256.21H168.432ZM161.426 249.205V246.341H178.301V249.205H161.426Z" fill="#165045" fill-opacity="0.5"/>
<path d="M212.432 256.21V239.335H215.295V256.21H212.432ZM205.426 249.205V246.341H222.301V249.205H205.426Z" fill="#165045" fill-opacity="0.5"/>
<path d="M256.432 256.21V239.335H259.295V256.21H256.432ZM249.426 249.205V246.341H266.301V249.205H249.426Z" fill="#165045" fill-opacity="0.5"/>
<path d="M300.432 256.21V239.335H303.295V256.21H300.432ZM293.426 249.205V246.341H310.301V249.205H293.426Z" fill="#165045" fill-opacity="0.5"/>
<path d="M344.432 256.21V239.335H347.295V256.21H344.432ZM337.426 249.205V246.341H354.301V249.205H337.426Z" fill="#165045" fill-opacity="0.5"/>
<path d="M388.432 256.21V239.335H391.295V256.21H388.432ZM381.426 249.205V246.341H398.301V249.205H381.426Z" fill="#165045" fill-opacity="0.5"/>
<path d="M432.432 256.21V239.335H435.295V256.21H432.432ZM425.426 249.205V246.341H442.301V249.205H425.426Z" fill="#165045" fill-opacity="0.5"/>
<path d="M476.432 256.21V239.335H479.295V256.21H476.432ZM469.426 249.205V246.341H486.301V249.205H469.426Z" fill="#165045" fill-opacity="0.5"/>
<path d="M520.432 256.21V239.335H523.295V256.21H520.432ZM513.426 249.205V246.341H530.301V249.205H513.426Z" fill="#165045" fill-opacity="0.5"/>
<path d="M564.432 256.21V239.335H567.295V256.21H564.432ZM557.426 249.205V246.341H574.301V249.205H557.426Z" fill="#165045" fill-opacity="0.5"/>
<path d="M608.432 256.21V239.335H611.295V256.21H608.432ZM601.426 249.205V246.341H618.301V249.205H601.426Z" fill="#165045" fill-opacity="0.5"/>
<path d="M652.432 256.21V239.335H655.295V256.21H652.432ZM645.426 249.205V246.341H662.301V249.205H645.426Z" fill="#165045" fill-opacity="0.5"/>
<path d="M696.432 256.21V239.335H699.295V256.21H696.432ZM689.426 249.205V246.341H706.301V249.205H689.426Z" fill="#165045" fill-opacity="0.5"/>
<path d="M740.432 256.21V239.335H743.295V256.21H740.432ZM733.426 249.205V246.341H750.301V249.205H733.426Z" fill="#165045" fill-opacity="0.5"/>
<path d="M784.432 256.21V239.335H787.295V256.21H784.432ZM777.426 249.205V246.341H794.301V249.205H777.426Z" fill="#165045" fill-opacity="0.5"/>
<path d="M828.432 256.21V239.335H831.295V256.21H828.432ZM821.426 249.205V246.341H838.301V249.205H821.426Z" fill="#165045" fill-opacity="0.5"/>
<path d="M872.432 256.21V239.335H875.295V256.21H872.432ZM865.426 249.205V246.341H882.301V249.205H865.426Z" fill="#165045" fill-opacity="0.5"/>
<path d="M916.432 256.21V239.335H919.295V256.21H916.432ZM909.426 249.205V246.341H926.301V249.205H909.426Z" fill="#165045" fill-opacity="0.5"/>
<path d="M960.432 256.21V239.335H963.295V256.21H960.432ZM953.426 249.205V246.341H970.301V249.205H953.426Z" fill="#165045" fill-opacity="0.5"/>
<path d="M1004.43 256.21V239.335H1007.3V256.21H1004.43ZM997.426 249.205V246.341H1014.3V249.205H997.426Z" fill="#165045" fill-opacity="0.5"/>
<path d="M1048.43 256.21V239.335H1051.3V256.21H1048.43ZM1041.43 249.205V246.341H1058.3V249.205H1041.43Z" fill="#165045" fill-opacity="0.5"/>
<path d="M1092.43 256.21V239.335H1095.3V256.21H1092.43ZM1085.43 249.205V246.341H1102.3V249.205H1085.43Z" fill="#165045" fill-opacity="0.5"/>
<path d="M1136.43 256.21V239.335H1139.3V256.21H1136.43ZM1129.43 249.205V246.341H1146.3V249.205H1129.43Z" fill="#165045" fill-opacity="0.5"/>
<path d="M1180.43 256.21V239.335H1183.3V256.21H1180.43ZM1173.43 249.205V246.341H1190.3V249.205H1173.43Z" fill="#165045" fill-opacity="0.5"/>
<path d="M1224.43 256.21V239.335H1227.3V256.21H1224.43ZM1217.43 249.205V246.341H1234.3V249.205H1217.43Z" fill="#165045" fill-opacity="0.5"/>
<path d="M1268.43 256.21V239.335H1271.3V256.21H1268.43ZM1261.43 249.205V246.341H1278.3V249.205H1261.43Z" fill="#165045" fill-opacity="0.5"/>
<path d="M1312.43 256.21V239.335H1315.3V256.21H1312.43ZM1305.43 249.205V246.341H1322.3V249.205H1305.43Z" fill="#165045" fill-opacity="0.5"/>
<path d="M1356.43 256.21V239.335H1359.3V256.21H1356.43ZM1349.43 249.205V246.341H1366.3V249.205H1349.43Z" fill="#165045" fill-opacity="0.5"/>
<path d="M1400.43 256.21V239.335H1403.3V256.21H1400.43ZM1393.43 249.205V246.341H1410.3V249.205H1393.43Z" fill="#165045" fill-opacity="0.5"/>
<path fill-rule="evenodd" clip-rule="evenodd" d="M1440 758.379L1392 744.394C1344 730.41 1248 701.442 1152 730.41C1056 758.379 960 845.284 864 859.268C768 874.252 672 816.316 576 823.308C480 830.3 384 902.221 288 946.173C192 989.126 96 1003.11 48 1010.1L0 1018.09V1104H48C96 1104 192 1104 288 1104C384 1104 480 1104 576 1104C672 1104 768 1104 864 1104C960 1104 1056 1104 1152 1104C1248 1104 1344 1104 1392 1104H1440V758.379Z" fill="#1BD6B4" fill-opacity="0.2"/>
<circle cx="809" cy="537" r="263" fill="#E6E6E6" fill-opacity="0.3"/>
<g filter="url(#filter0_d_1_2)">
<circle cx="809.5" cy="537.5" r="204.5" fill="white"/>
</g>
<path d="M815.375 511L834.5 491.875L846.7 504.078C850.227 497.125 856.046 491.601 863.173 488.441L870.937 484.984M870.937 484.984L854.107 478.524M870.937 484.984L864.477 501.817" stroke="#1BD6B4" stroke-width="5" stroke-linecap="round" stroke-linejoin="round"/>
<path d="M676.273 513.636C672.606 513.636 669.348 513.008 666.5 511.75C663.667 510.477 661.439 508.727 659.818 506.5C658.197 504.273 657.379 501.712 657.364 498.818H670.091C670.106 499.712 670.379 500.515 670.909 501.227C671.455 501.924 672.197 502.47 673.136 502.864C674.076 503.258 675.152 503.455 676.364 503.455C677.53 503.455 678.561 503.25 679.455 502.841C680.348 502.417 681.045 501.833 681.545 501.091C682.045 500.348 682.288 499.5 682.273 498.545C682.288 497.606 682 496.773 681.409 496.045C680.833 495.318 680.023 494.75 678.977 494.341C677.932 493.932 676.727 493.727 675.364 493.727H670.636V485H675.364C676.621 485 677.727 484.795 678.682 484.386C679.652 483.977 680.402 483.409 680.932 482.682C681.477 481.955 681.742 481.121 681.727 480.182C681.742 479.273 681.523 478.47 681.068 477.773C680.614 477.076 679.977 476.53 679.159 476.136C678.356 475.742 677.424 475.545 676.364 475.545C675.212 475.545 674.182 475.75 673.273 476.159C672.379 476.568 671.674 477.136 671.159 477.864C670.644 478.591 670.379 479.424 670.364 480.364H658.273C658.288 477.515 659.068 475 660.614 472.818C662.174 470.636 664.311 468.924 667.023 467.682C669.735 466.439 672.848 465.818 676.364 465.818C679.803 465.818 682.841 466.402 685.477 467.568C688.129 468.735 690.197 470.341 691.682 472.386C693.182 474.417 693.924 476.742 693.909 479.364C693.939 481.97 693.045 484.106 691.227 485.773C689.424 487.439 687.136 488.424 684.364 488.727V489.091C688.121 489.5 690.947 490.652 692.841 492.545C694.735 494.424 695.667 496.788 695.636 499.636C695.652 502.364 694.833 504.78 693.182 506.886C691.545 508.992 689.265 510.644 686.341 511.841C683.432 513.038 680.076 513.636 676.273 513.636ZM721.551 514.273C717.324 514.258 713.672 513.28 710.597 511.341C707.521 509.402 705.15 506.606 703.483 502.955C701.816 499.303 700.991 494.924 701.006 489.818C701.021 484.697 701.854 480.348 703.506 476.773C705.172 473.197 707.536 470.477 710.597 468.614C713.672 466.75 717.324 465.818 721.551 465.818C725.778 465.818 729.43 466.758 732.506 468.636C735.581 470.5 737.953 473.22 739.619 476.795C741.286 480.371 742.112 484.712 742.097 489.818C742.097 494.955 741.263 499.348 739.597 503C737.93 506.652 735.559 509.447 732.483 511.386C729.422 513.311 725.778 514.273 721.551 514.273ZM721.551 504C723.733 504 725.521 502.864 726.915 500.591C728.324 498.303 729.021 494.712 729.006 489.818C729.006 486.621 728.688 484.008 728.051 481.977C727.415 479.947 726.536 478.447 725.415 477.477C724.294 476.492 723.006 476 721.551 476C719.369 476 717.589 477.106 716.21 479.318C714.831 481.53 714.127 485.03 714.097 489.818C714.081 493.076 714.392 495.758 715.028 497.864C715.665 499.955 716.544 501.5 717.665 502.5C718.801 503.5 720.097 504 721.551 504ZM774.665 504.273V501.818C774.665 499.848 775.089 498.03 775.938 496.364C776.801 494.697 778.051 493.356 779.688 492.341C781.324 491.326 783.316 490.818 785.665 490.818C788.074 490.818 790.097 491.318 791.733 492.318C793.384 493.318 794.634 494.652 795.483 496.318C796.331 497.985 796.756 499.818 796.756 501.818V504.273C796.756 506.242 796.324 508.061 795.46 509.727C794.612 511.394 793.362 512.735 791.71 513.75C790.059 514.765 788.044 515.273 785.665 515.273C783.286 515.273 781.278 514.765 779.642 513.75C778.006 512.735 776.763 511.394 775.915 509.727C775.081 508.061 774.665 506.242 774.665 504.273ZM782.574 501.818V504.273C782.574 505.136 782.786 505.992 783.21 506.841C783.65 507.674 784.468 508.091 785.665 508.091C786.922 508.091 787.748 507.682 788.142 506.864C788.551 506.045 788.756 505.182 788.756 504.273V501.818C788.756 500.909 788.566 500.03 788.188 499.182C787.809 498.333 786.968 497.909 785.665 497.909C784.468 497.909 783.65 498.333 783.21 499.182C782.786 500.03 782.574 500.909 782.574 501.818ZM750.301 477.636V475.182C750.301 473.182 750.733 471.348 751.597 469.682C752.475 468.015 753.733 466.682 755.369 465.682C757.006 464.682 758.983 464.182 761.301 464.182C763.71 464.182 765.733 464.682 767.369 465.682C769.021 466.682 770.271 468.015 771.119 469.682C771.968 471.348 772.392 473.182 772.392 475.182V477.636C772.392 479.636 771.96 481.462 771.097 483.114C770.248 484.765 768.998 486.083 767.347 487.068C765.695 488.053 763.68 488.545 761.301 488.545C758.922 488.545 756.915 488.045 755.278 487.045C753.642 486.045 752.4 484.72 751.551 483.068C750.718 481.417 750.301 479.606 750.301 477.636ZM758.301 475.182V477.636C758.301 478.545 758.513 479.409 758.938 480.227C759.362 481.045 760.15 481.455 761.301 481.455C762.559 481.455 763.384 481.045 763.778 480.227C764.188 479.409 764.392 478.545 764.392 477.636V475.182C764.392 474.273 764.203 473.394 763.824 472.545C763.445 471.697 762.604 471.273 761.301 471.273C760.104 471.273 759.301 471.712 758.892 472.591C758.498 473.455 758.301 474.318 758.301 475.182ZM754.165 513L786.165 466.455H792.619L760.619 513H754.165Z" fill="#1BD6B4"/>
<path d="M657.642 567V545.182H662.784V567H657.642ZM660.227 542.085C659.413 542.085 658.712 541.815 658.125 541.276C657.538 540.726 657.244 540.068 657.244 539.301C657.244 538.525 657.538 537.866 658.125 537.327C658.712 536.777 659.413 536.503 660.227 536.503C661.051 536.503 661.752 536.777 662.33 537.327C662.917 537.866 663.21 538.525 663.21 539.301C663.21 540.068 662.917 540.726 662.33 541.276C661.752 541.815 661.051 542.085 660.227 542.085ZM673.214 554.216V567H668.072V545.182H672.987V548.889H673.242C673.744 547.668 674.544 546.697 675.643 545.977C676.751 545.258 678.119 544.898 679.748 544.898C681.254 544.898 682.565 545.22 683.683 545.864C684.809 546.508 685.681 547.44 686.296 548.662C686.921 549.884 687.229 551.366 687.219 553.108V567H682.077V553.903C682.077 552.445 681.699 551.304 680.941 550.48C680.193 549.656 679.156 549.244 677.83 549.244C676.931 549.244 676.13 549.443 675.43 549.841C674.738 550.229 674.194 550.793 673.796 551.531C673.408 552.27 673.214 553.165 673.214 554.216ZM701.964 567.426C699.786 567.426 697.915 566.948 696.353 565.991C694.8 565.035 693.602 563.714 692.759 562.028C691.926 560.333 691.509 558.383 691.509 556.176C691.509 553.96 691.935 552.005 692.788 550.31C693.64 548.605 694.843 547.279 696.396 546.332C697.958 545.376 699.805 544.898 701.935 544.898C703.706 544.898 705.273 545.224 706.637 545.878C708.01 546.522 709.104 547.436 709.918 548.619C710.733 549.794 711.197 551.167 711.31 552.739H706.396C706.197 551.687 705.723 550.812 704.975 550.111C704.237 549.401 703.247 549.045 702.006 549.045C700.955 549.045 700.032 549.33 699.237 549.898C698.441 550.456 697.821 551.261 697.376 552.312C696.94 553.364 696.722 554.623 696.722 556.091C696.722 557.578 696.94 558.856 697.376 559.926C697.811 560.987 698.422 561.806 699.208 562.384C700.004 562.952 700.936 563.236 702.006 563.236C702.764 563.236 703.441 563.094 704.038 562.81C704.644 562.516 705.15 562.095 705.558 561.545C705.965 560.996 706.244 560.329 706.396 559.543H711.31C711.187 561.086 710.733 562.455 709.947 563.648C709.161 564.831 708.091 565.759 706.737 566.432C705.382 567.095 703.791 567.426 701.964 567.426ZM715.533 567V545.182H720.518V548.818H720.746C721.143 547.559 721.825 546.588 722.791 545.906C723.767 545.215 724.879 544.869 726.129 544.869C726.413 544.869 726.731 544.884 727.081 544.912C727.441 544.931 727.739 544.964 727.976 545.011V549.741C727.758 549.666 727.412 549.599 726.939 549.543C726.475 549.476 726.025 549.443 725.589 549.443C724.652 549.443 723.809 549.647 723.061 550.054C722.322 550.452 721.74 551.006 721.314 551.716C720.888 552.426 720.675 553.245 720.675 554.173V567H715.533ZM740.153 567.426C737.965 567.426 736.076 566.972 734.485 566.062C732.904 565.144 731.687 563.847 730.835 562.17C729.982 560.485 729.556 558.501 729.556 556.219C729.556 553.974 729.982 552.005 730.835 550.31C731.696 548.605 732.899 547.279 734.442 546.332C735.986 545.376 737.799 544.898 739.883 544.898C741.228 544.898 742.496 545.116 743.69 545.551C744.892 545.977 745.953 546.64 746.871 547.54C747.799 548.439 748.529 549.585 749.059 550.977C749.589 552.36 749.854 554.008 749.854 555.92V557.497H731.971V554.031H744.925C744.916 553.046 744.703 552.17 744.286 551.403C743.87 550.627 743.287 550.016 742.539 549.571C741.8 549.126 740.939 548.903 739.954 548.903C738.903 548.903 737.979 549.159 737.184 549.67C736.388 550.172 735.768 550.835 735.323 551.659C734.888 552.473 734.665 553.368 734.656 554.344V557.369C734.656 558.638 734.888 559.727 735.352 560.636C735.816 561.536 736.464 562.227 737.298 562.71C738.131 563.184 739.106 563.42 740.224 563.42C740.972 563.42 741.649 563.316 742.255 563.108C742.861 562.89 743.387 562.573 743.832 562.156C744.277 561.74 744.613 561.223 744.84 560.608L749.641 561.148C749.338 562.417 748.761 563.525 747.908 564.472C747.066 565.409 745.986 566.138 744.67 566.659C743.353 567.17 741.848 567.426 740.153 567.426ZM760.483 567.44C759.1 567.44 757.855 567.194 756.747 566.702C755.649 566.2 754.777 565.461 754.134 564.486C753.499 563.51 753.182 562.308 753.182 560.878C753.182 559.647 753.409 558.629 753.864 557.824C754.318 557.019 754.938 556.375 755.724 555.892C756.51 555.409 757.396 555.045 758.381 554.798C759.375 554.543 760.402 554.358 761.463 554.244C762.741 554.112 763.778 553.993 764.574 553.889C765.369 553.776 765.947 553.605 766.307 553.378C766.676 553.141 766.861 552.777 766.861 552.284V552.199C766.861 551.129 766.544 550.3 765.909 549.713C765.275 549.126 764.361 548.832 763.168 548.832C761.908 548.832 760.909 549.107 760.17 549.656C759.441 550.205 758.949 550.854 758.693 551.602L753.892 550.92C754.271 549.595 754.896 548.487 755.767 547.597C756.638 546.697 757.704 546.025 758.963 545.58C760.223 545.125 761.615 544.898 763.139 544.898C764.19 544.898 765.237 545.021 766.278 545.267C767.32 545.513 768.272 545.92 769.134 546.489C769.995 547.047 770.687 547.81 771.207 548.776C771.738 549.741 772.003 550.949 772.003 552.398V567H767.06V564.003H766.889C766.577 564.609 766.136 565.177 765.568 565.707C765.009 566.228 764.304 566.65 763.452 566.972C762.609 567.284 761.619 567.44 760.483 567.44ZM761.818 563.662C762.85 563.662 763.745 563.458 764.503 563.051C765.26 562.634 765.843 562.085 766.25 561.403C766.667 560.722 766.875 559.978 766.875 559.173V556.602C766.714 556.735 766.439 556.858 766.051 556.972C765.672 557.085 765.246 557.185 764.773 557.27C764.299 557.355 763.83 557.431 763.366 557.497C762.902 557.563 762.5 557.62 762.159 557.668C761.392 557.772 760.705 557.942 760.099 558.179C759.493 558.416 759.015 558.747 758.665 559.173C758.314 559.59 758.139 560.13 758.139 560.793C758.139 561.74 758.485 562.455 759.176 562.938C759.867 563.42 760.748 563.662 761.818 563.662ZM794.418 550.949L789.73 551.46C789.598 550.987 789.366 550.542 789.034 550.125C788.712 549.708 788.277 549.372 787.727 549.116C787.178 548.861 786.506 548.733 785.71 548.733C784.64 548.733 783.741 548.965 783.011 549.429C782.292 549.893 781.937 550.494 781.946 551.233C781.937 551.867 782.169 552.384 782.642 552.781C783.125 553.179 783.92 553.506 785.028 553.761L788.75 554.557C790.814 555.002 792.348 555.707 793.352 556.673C794.366 557.639 794.877 558.903 794.886 560.466C794.877 561.839 794.474 563.051 793.679 564.102C792.893 565.144 791.799 565.958 790.398 566.545C788.996 567.133 787.386 567.426 785.568 567.426C782.898 567.426 780.748 566.867 779.119 565.75C777.491 564.623 776.52 563.056 776.207 561.048L781.222 560.565C781.449 561.55 781.932 562.294 782.67 562.795C783.409 563.297 784.37 563.548 785.554 563.548C786.776 563.548 787.756 563.297 788.494 562.795C789.242 562.294 789.616 561.673 789.616 560.935C789.616 560.31 789.375 559.794 788.892 559.386C788.419 558.979 787.68 558.667 786.676 558.449L782.955 557.668C780.862 557.232 779.313 556.498 778.31 555.466C777.306 554.424 776.809 553.108 776.818 551.517C776.809 550.172 777.173 549.008 777.912 548.023C778.66 547.028 779.697 546.261 781.023 545.722C782.358 545.172 783.897 544.898 785.639 544.898C788.196 544.898 790.208 545.442 791.676 546.531C793.153 547.62 794.067 549.093 794.418 550.949ZM808.786 567.426C806.598 567.426 804.709 566.972 803.118 566.062C801.536 565.144 800.32 563.847 799.467 562.17C798.615 560.485 798.189 558.501 798.189 556.219C798.189 553.974 798.615 552.005 799.467 550.31C800.329 548.605 801.532 547.279 803.075 546.332C804.619 545.376 806.432 544.898 808.516 544.898C809.86 544.898 811.129 545.116 812.322 545.551C813.525 545.977 814.586 546.64 815.504 547.54C816.432 548.439 817.161 549.585 817.692 550.977C818.222 552.36 818.487 554.008 818.487 555.92V557.497H800.604V554.031H813.558C813.549 553.046 813.336 552.17 812.919 551.403C812.502 550.627 811.92 550.016 811.172 549.571C810.433 549.126 809.571 548.903 808.587 548.903C807.536 548.903 806.612 549.159 805.817 549.67C805.021 550.172 804.401 550.835 803.956 551.659C803.52 552.473 803.298 553.368 803.288 554.344V557.369C803.288 558.638 803.52 559.727 803.984 560.636C804.448 561.536 805.097 562.227 805.93 562.71C806.764 563.184 807.739 563.42 808.857 563.42C809.605 563.42 810.282 563.316 810.888 563.108C811.494 562.89 812.019 562.573 812.464 562.156C812.91 561.74 813.246 561.223 813.473 560.608L818.274 561.148C817.971 562.417 817.393 563.525 816.541 564.472C815.698 565.409 814.619 566.138 813.303 566.659C811.986 567.17 810.481 567.426 808.786 567.426ZM832.759 567V545.182H837.901V567H832.759ZM835.344 542.085C834.53 542.085 833.829 541.815 833.242 541.276C832.655 540.726 832.362 540.068 832.362 539.301C832.362 538.525 832.655 537.866 833.242 537.327C833.829 536.777 834.53 536.503 835.344 536.503C836.168 536.503 836.869 536.777 837.447 537.327C838.034 537.866 838.327 538.525 838.327 539.301C838.327 540.068 838.034 540.726 837.447 541.276C836.869 541.815 836.168 542.085 835.344 542.085ZM848.331 554.216V567H843.189V545.182H848.104V548.889H848.359C848.861 547.668 849.661 546.697 850.76 545.977C851.868 545.258 853.236 544.898 854.865 544.898C856.371 544.898 857.682 545.22 858.8 545.864C859.927 546.508 860.798 547.44 861.413 548.662C862.038 549.884 862.346 551.366 862.337 553.108V567H857.195V553.903C857.195 552.445 856.816 551.304 856.058 550.48C855.31 549.656 854.273 549.244 852.947 549.244C852.048 549.244 851.248 549.443 850.547 549.841C849.856 550.229 849.311 550.793 848.913 551.531C848.525 552.27 848.331 553.165 848.331 554.216ZM894.73 550.949L890.043 551.46C889.91 550.987 889.678 550.542 889.347 550.125C889.025 549.708 888.589 549.372 888.04 549.116C887.491 548.861 886.818 548.733 886.023 548.733C884.953 548.733 884.053 548.965 883.324 549.429C882.604 549.893 882.249 550.494 882.259 551.233C882.249 551.867 882.481 552.384 882.955 552.781C883.438 553.179 884.233 553.506 885.341 553.761L889.062 554.557C891.127 555.002 892.661 555.707 893.665 556.673C894.678 557.639 895.189 558.903 895.199 560.466C895.189 561.839 894.787 563.051 893.991 564.102C893.205 565.144 892.112 565.958 890.71 566.545C889.309 567.133 887.699 567.426 885.881 567.426C883.21 567.426 881.061 566.867 879.432 565.75C877.803 564.623 876.832 563.056 876.52 561.048L881.534 560.565C881.761 561.55 882.244 562.294 882.983 562.795C883.722 563.297 884.683 563.548 885.866 563.548C887.088 563.548 888.068 563.297 888.807 562.795C889.555 562.294 889.929 561.673 889.929 560.935C889.929 560.31 889.688 559.794 889.205 559.386C888.731 558.979 887.992 558.667 886.989 558.449L883.267 557.668C881.174 557.232 879.626 556.498 878.622 555.466C877.618 554.424 877.121 553.108 877.131 551.517C877.121 550.172 877.486 549.008 878.224 548.023C878.973 547.028 880.009 546.261 881.335 545.722C882.67 545.172 884.209 544.898 885.952 544.898C888.509 544.898 890.521 545.442 891.989 546.531C893.466 547.62 894.38 549.093 894.73 550.949ZM905.717 567.44C904.335 567.44 903.089 567.194 901.982 566.702C900.883 566.2 900.012 565.461 899.368 564.486C898.733 563.51 898.416 562.308 898.416 560.878C898.416 559.647 898.643 558.629 899.098 557.824C899.553 557.019 900.173 556.375 900.959 555.892C901.745 555.409 902.63 555.045 903.615 554.798C904.609 554.543 905.637 554.358 906.697 554.244C907.976 554.112 909.013 553.993 909.808 553.889C910.604 553.776 911.181 553.605 911.541 553.378C911.911 553.141 912.095 552.777 912.095 552.284V552.199C912.095 551.129 911.778 550.3 911.143 549.713C910.509 549.126 909.595 548.832 908.402 548.832C907.143 548.832 906.143 549.107 905.405 549.656C904.676 550.205 904.183 550.854 903.928 551.602L899.126 550.92C899.505 549.595 900.13 548.487 901.001 547.597C901.873 546.697 902.938 546.025 904.197 545.58C905.457 545.125 906.849 544.898 908.374 544.898C909.425 544.898 910.471 545.021 911.513 545.267C912.554 545.513 913.506 545.92 914.368 546.489C915.23 547.047 915.921 547.81 916.442 548.776C916.972 549.741 917.237 550.949 917.237 552.398V567H912.294V564.003H912.124C911.811 564.609 911.371 565.177 910.803 565.707C910.244 566.228 909.538 566.65 908.686 566.972C907.843 567.284 906.854 567.44 905.717 567.44ZM907.053 563.662C908.085 563.662 908.98 563.458 909.737 563.051C910.495 562.634 911.077 562.085 911.484 561.403C911.901 560.722 912.109 559.978 912.109 559.173V556.602C911.948 556.735 911.674 556.858 911.286 556.972C910.907 557.085 910.481 557.185 910.007 557.27C909.534 557.355 909.065 557.431 908.601 557.497C908.137 557.563 907.734 557.62 907.393 557.668C906.626 557.772 905.94 557.942 905.334 558.179C904.728 558.416 904.25 558.747 903.899 559.173C903.549 559.59 903.374 560.13 903.374 560.793C903.374 561.74 903.719 562.455 904.411 562.938C905.102 563.42 905.982 563.662 907.053 563.662ZM927.55 537.909V567H922.408V537.909H927.55ZM942.496 567.426C940.309 567.426 938.42 566.972 936.829 566.062C935.247 565.144 934.031 563.847 933.178 562.17C932.326 560.485 931.9 558.501 931.9 556.219C931.9 553.974 932.326 552.005 933.178 550.31C934.04 548.605 935.243 547.279 936.786 546.332C938.33 545.376 940.143 544.898 942.227 544.898C943.571 544.898 944.84 545.116 946.033 545.551C947.236 545.977 948.297 546.64 949.215 547.54C950.143 548.439 950.872 549.585 951.403 550.977C951.933 552.36 952.198 554.008 952.198 555.92V557.497H934.315V554.031H947.269C947.26 553.046 947.047 552.17 946.63 551.403C946.213 550.627 945.631 550.016 944.883 549.571C944.144 549.126 943.282 548.903 942.298 548.903C941.246 548.903 940.323 549.159 939.528 549.67C938.732 550.172 938.112 550.835 937.667 551.659C937.231 552.473 937.009 553.368 936.999 554.344V557.369C936.999 558.638 937.231 559.727 937.695 560.636C938.159 561.536 938.808 562.227 939.641 562.71C940.475 563.184 941.45 563.42 942.567 563.42C943.316 563.42 943.993 563.316 944.599 563.108C945.205 562.89 945.73 562.573 946.175 562.156C946.621 561.74 946.957 561.223 947.184 560.608L951.985 561.148C951.682 562.417 951.104 563.525 950.252 564.472C949.409 565.409 948.33 566.138 947.013 566.659C945.697 567.17 944.192 567.426 942.496 567.426ZM973.793 550.949L969.105 551.46C968.973 550.987 968.741 550.542 968.409 550.125C968.087 549.708 967.652 549.372 967.102 549.116C966.553 548.861 965.881 548.733 965.085 548.733C964.015 548.733 963.116 548.965 962.386 549.429C961.667 549.893 961.312 550.494 961.321 551.233C961.312 551.867 961.544 552.384 962.017 552.781C962.5 553.179 963.295 553.506 964.403 553.761L968.125 554.557C970.189 555.002 971.723 555.707 972.727 556.673C973.741 557.639 974.252 558.903 974.261 560.466C974.252 561.839 973.849 563.051 973.054 564.102C972.268 565.144 971.174 565.958 969.773 566.545C968.371 567.133 966.761 567.426 964.943 567.426C962.273 567.426 960.123 566.867 958.494 565.75C956.866 564.623 955.895 563.056 955.582 561.048L960.597 560.565C960.824 561.55 961.307 562.294 962.045 562.795C962.784 563.297 963.745 563.548 964.929 563.548C966.151 563.548 967.131 563.297 967.869 562.795C968.617 562.294 968.991 561.673 968.991 560.935C968.991 560.31 968.75 559.794 968.267 559.386C967.794 558.979 967.055 558.667 966.051 558.449L962.33 557.668C960.237 557.232 958.688 556.498 957.685 555.466C956.681 554.424 956.184 553.108 956.193 551.517C956.184 550.172 956.548 549.008 957.287 548.023C958.035 547.028 959.072 546.261 960.398 545.722C961.733 545.172 963.272 544.898 965.014 544.898C967.571 544.898 969.583 545.442 971.051 546.531C972.528 547.62 973.442 549.093 973.793 550.949ZM668.537 593.182V597.159H655.994V593.182H668.537ZM659.091 587.955H664.233V608.438C664.233 609.129 664.337 609.659 664.545 610.028C664.763 610.388 665.047 610.634 665.398 610.767C665.748 610.9 666.136 610.966 666.562 610.966C666.884 610.966 667.178 610.942 667.443 610.895C667.718 610.848 667.926 610.805 668.068 610.767L668.935 614.787C668.66 614.882 668.267 614.986 667.756 615.099C667.254 615.213 666.638 615.279 665.909 615.298C664.621 615.336 663.461 615.142 662.429 614.716C661.397 614.28 660.578 613.608 659.972 612.699C659.375 611.79 659.081 610.653 659.091 609.29V587.955ZM678.448 602.216V615H673.306V585.909H678.335V596.889H678.59C679.102 595.658 679.892 594.687 680.962 593.977C682.042 593.258 683.415 592.898 685.082 592.898C686.597 592.898 687.918 593.215 689.045 593.849C690.172 594.484 691.043 595.412 691.658 596.634C692.283 597.855 692.596 599.347 692.596 601.108V615H687.454V601.903C687.454 600.436 687.075 599.295 686.317 598.48C685.569 597.656 684.518 597.244 683.164 597.244C682.255 597.244 681.441 597.443 680.721 597.841C680.011 598.229 679.452 598.793 679.045 599.531C678.647 600.27 678.448 601.165 678.448 602.216ZM697.837 615V593.182H702.979V615H697.837ZM700.423 590.085C699.608 590.085 698.907 589.815 698.32 589.276C697.733 588.726 697.44 588.068 697.44 587.301C697.44 586.525 697.733 585.866 698.32 585.327C698.907 584.777 699.608 584.503 700.423 584.503C701.246 584.503 701.947 584.777 702.525 585.327C703.112 585.866 703.406 586.525 703.406 587.301C703.406 588.068 703.112 588.726 702.525 589.276C701.947 589.815 701.246 590.085 700.423 590.085ZM725.511 598.949L720.824 599.46C720.691 598.987 720.459 598.542 720.128 598.125C719.806 597.708 719.37 597.372 718.821 597.116C718.272 596.861 717.599 596.733 716.804 596.733C715.734 596.733 714.834 596.965 714.105 597.429C713.385 597.893 713.03 598.494 713.04 599.233C713.03 599.867 713.262 600.384 713.736 600.781C714.219 601.179 715.014 601.506 716.122 601.761L719.844 602.557C721.908 603.002 723.442 603.707 724.446 604.673C725.459 605.639 725.971 606.903 725.98 608.466C725.971 609.839 725.568 611.051 724.773 612.102C723.987 613.144 722.893 613.958 721.491 614.545C720.09 615.133 718.48 615.426 716.662 615.426C713.991 615.426 711.842 614.867 710.213 613.75C708.584 612.623 707.614 611.056 707.301 609.048L712.315 608.565C712.543 609.55 713.026 610.294 713.764 610.795C714.503 611.297 715.464 611.548 716.648 611.548C717.869 611.548 718.849 611.297 719.588 610.795C720.336 610.294 720.71 609.673 720.71 608.935C720.71 608.31 720.469 607.794 719.986 607.386C719.512 606.979 718.774 606.667 717.77 606.449L714.048 605.668C711.955 605.232 710.407 604.498 709.403 603.466C708.4 602.424 707.902 601.108 707.912 599.517C707.902 598.172 708.267 597.008 709.006 596.023C709.754 595.028 710.791 594.261 712.116 593.722C713.452 593.172 714.991 592.898 716.733 592.898C719.29 592.898 721.302 593.442 722.77 594.531C724.247 595.62 725.161 597.093 725.511 598.949ZM744.645 615L738.48 593.182H743.722L747.557 608.523H747.756L751.676 593.182H756.861L760.781 608.438H760.994L764.773 593.182H770.028L763.849 615H758.494L754.403 600.256H754.105L750.014 615H744.645ZM782.653 615.426C780.465 615.426 778.576 614.972 776.985 614.062C775.404 613.144 774.187 611.847 773.335 610.17C772.482 608.485 772.056 606.501 772.056 604.219C772.056 601.974 772.482 600.005 773.335 598.31C774.196 596.605 775.399 595.279 776.942 594.332C778.486 593.376 780.299 592.898 782.383 592.898C783.728 592.898 784.996 593.116 786.19 593.551C787.392 593.977 788.453 594.64 789.371 595.54C790.299 596.439 791.029 597.585 791.559 598.977C792.089 600.36 792.354 602.008 792.354 603.92V605.497H774.471V602.031H787.425C787.416 601.046 787.203 600.17 786.786 599.403C786.37 598.627 785.787 598.016 785.039 597.571C784.3 597.126 783.439 596.903 782.454 596.903C781.403 596.903 780.479 597.159 779.684 597.67C778.888 598.172 778.268 598.835 777.823 599.659C777.388 600.473 777.165 601.368 777.156 602.344V605.369C777.156 606.638 777.388 607.727 777.852 608.636C778.316 609.536 778.964 610.227 779.798 610.71C780.631 611.184 781.606 611.42 782.724 611.42C783.472 611.42 784.149 611.316 784.755 611.108C785.361 610.89 785.887 610.573 786.332 610.156C786.777 609.74 787.113 609.223 787.34 608.608L792.141 609.148C791.838 610.417 791.261 611.525 790.408 612.472C789.566 613.409 788.486 614.138 787.17 614.659C785.853 615.17 784.348 615.426 782.653 615.426ZM806.364 615.426C804.176 615.426 802.287 614.972 800.696 614.062C799.115 613.144 797.898 611.847 797.045 610.17C796.193 608.485 795.767 606.501 795.767 604.219C795.767 601.974 796.193 600.005 797.045 598.31C797.907 596.605 799.11 595.279 800.653 594.332C802.197 593.376 804.01 592.898 806.094 592.898C807.438 592.898 808.707 593.116 809.901 593.551C811.103 593.977 812.164 594.64 813.082 595.54C814.01 596.439 814.74 597.585 815.27 598.977C815.8 600.36 816.065 602.008 816.065 603.92V605.497H798.182V602.031H811.136C811.127 601.046 810.914 600.17 810.497 599.403C810.08 598.627 809.498 598.016 808.75 597.571C808.011 597.126 807.15 596.903 806.165 596.903C805.114 596.903 804.19 597.159 803.395 597.67C802.599 598.172 801.979 598.835 801.534 599.659C801.098 600.473 800.876 601.368 800.866 602.344V605.369C800.866 606.638 801.098 607.727 801.562 608.636C802.027 609.536 802.675 610.227 803.509 610.71C804.342 611.184 805.317 611.42 806.435 611.42C807.183 611.42 807.86 611.316 808.466 611.108C809.072 610.89 809.598 610.573 810.043 610.156C810.488 609.74 810.824 609.223 811.051 608.608L815.852 609.148C815.549 610.417 814.972 611.525 814.119 612.472C813.277 613.409 812.197 614.138 810.881 614.659C809.564 615.17 808.059 615.426 806.364 615.426ZM825.103 608.153L825.089 601.946H825.913L833.754 593.182H839.762L830.117 603.92H829.052L825.103 608.153ZM820.415 615V585.909H825.558V615H820.415ZM834.109 615L827.006 605.071L830.472 601.449L840.259 615H834.109Z" fill="#606060"/>
</g>
<defs>
<filter id="filter0_d_1_2" x="585" y="321" width="449" height="449" filterUnits="userSpaceOnUse" color-interpolation-filters="sRGB">
<feFlood flood-opacity="0" result="BackgroundImageFix"/>
<feColorMatrix in="SourceAlpha" type="matrix" values="0 0 0 0 0 0 0 0 0 0 0 0 0 0 0 0 0 0 127 0" result="hardAlpha"/>
<feOffset dy="8"/>
<feGaussianBlur stdDeviation="10"/>
<feComposite in2="hardAlpha" operator="out"/>
<feColorMatrix type="matrix" values="0 0 0 0 0 0 0 0 0 0 0 0 0 0 0 0 0 0 0.1 0"/>
<feBlend mode="normal" in2="BackgroundImageFix" result="effect1_dropShadow_1_2"/>
<feBlend mode="normal" in="SourceGraphic" in2="effect1_dropShadow_1_2" result="shape"/>
</filter>
<clipPath id="clip0_1_2">
<rect width="1440" height="1024" fill="white"/>
</clipPath>
</defs>
</svg>
